<?xml version="1.0" encoding="UTF-8" standalone="no"?>
<!-- Created with Inkscape (http://www.inkscape.org/) -->

<svg
   width="179.61443mm"
   height="179.63686mm"
   viewBox="0 0 179.61443 179.63686"
   version="1.1"
   id="svg1"
   xmlns="http://www.w3.org/2000/svg"
   xmlns:svg="http://www.w3.org/2000/svg">
  <defs
     id="defs1">
    <pattern
       patternUnits="userSpaceOnUse"
       width="589.72405"
       height="261.57383"
       patternTransform="translate(-2.4774098,138.60088)"
       preserveAspectRatio="xMidYMid"
       id="pattern2">
      <path
         style="fill:#ffffff;stroke-width:0.264583"
         d="m 23.376496,98.112825 c 1.039469,2.223495 2.071688,4.325265 3.163832,6.386445 1.174508,2.20965 2.407732,4.35368 3.719563,6.43087 3.102739,4.90496 6.691327,9.69123 10.637799,14.18103 0,0 3e-6,0 3e-6,0 4.415979,5.04196 9.439203,9.96797 14.958696,14.58145 5.180365,4.33576 11.074515,8.63271 17.603755,12.46469 2.83429,1.66621 5.886844,3.28183 9.142859,4.74534 2.89046,1.30732 6.026362,2.47461 9.367833,3.37521 0,0 1.2e-5,1e-5 1.2e-5,1e-5 3.239443,0.85723 6.598134,1.38712 9.995512,1.54275 3.89397,0.16003 7.6562,-0.0673 11.30487,-0.5908 0,0 1e-5,0 1e-5,0 4.81883,-0.67158 9.46728,-1.7577 14.07686,-3.17394 0,0 1e-5,-1e-5 1e-5,-1e-5 6.27286,-1.92052 12.47004,-4.46351 18.72949,-7.60055 19.10355,-9.56061 38.41009,-24.48975 58.79295,-45.04692 -21.78421,15.51453 -39.88785,28.75529 -57.99866,38.84998 -5.87092,3.27645 -11.61044,6.14311 -17.46037,8.5124 0,0 -1e-5,0 -1e-5,0 -4.29655,1.74569 -8.62664,3.21415 -13.17152,4.27939 0,0 -1e-5,0 -1e-5,0 -3.4395,0.8201 -7.00998,1.34179 -10.7306,1.44106 -3.24618,0.069 -6.462939,-0.26747 -9.550012,-0.95754 -2e-6,0 -4e-6,0 -6e-6,0 -3.182005,-0.72643 -6.148593,-1.74459 -8.856065,-2.90374 -3.048088,-1.29577 -5.887935,-2.74808 -8.506803,-4.2411 -6.000531,-3.41438 -11.500639,-7.31002 -16.409581,-11.32366 -5.246087,-4.28356 -10.316358,-9.11998 -15.185111,-14.66312 0,0 -6e-6,-10e-6 -6e-6,-10e-6 -4.363129,-4.95097 -8.771017,-10.76568 -13.202918,-17.61673 -1.87013,-2.89503 -3.756223,-6.03329 -5.666132,-9.42052 -1.070013,-1.904306 -2.151202,-3.896826 -3.251163,-5.99351 -0.824774,1.159731 -1.357614,3.377897 -1.505087,6.741525 z"
         id="path2"
         transform="matrix(3.2492747,0,0,3.7102806,-75.956658,-339.01316)" />
    </pattern>
    <clipPath
       clipPathUnits="userSpaceOnUse"
       id="clipPath13">
      <circle
         style="fill:#000000;stroke-width:0.999999"
         id="circle13"
         cx="380.56387"
         cy="562.69769"
         r="339.34412" />
    </clipPath>
    <clipPath
       clipPathUnits="userSpaceOnUse"
       id="clipPath14">
      <circle
         style="fill:#000000;stroke-width:0.264583"
         id="circle14"
         cx="100.69086"
         cy="148.88043"
         r="89.784798" />
    </clipPath>
  </defs>
  <g
     id="layer1"
     transform="translate(-10.861225,-59.02838)">
    <circle
       style="fill:#000000;stroke-width:0.264583"
       id="path1"
       cx="100.69086"
       cy="148.88043"
       r="89.784798" />
  </g>
  <g
     id="layer2"
     transform="translate(-10.861225,-59.02838)">
    <text
       xml:space="preserve"
       style="font-style:normal;font-variant:normal;font-weight:normal;font-stretch:normal;font-size:35.4537px;font-family:FRIZON;-inkscape-font-specification:'FRIZON, Normal';font-variant-ligatures:normal;font-variant-caps:normal;font-variant-numeric:normal;font-variant-east-asian:normal;display:inline;fill:#ffffff;stroke-width:0.553966"
       x="15.46728"
       y="154.48953"
       id="text2"><tspan
         id="tspan2"
         x="15.46728"
         y="154.48953"
         style="font-style:normal;font-variant:normal;font-weight:normal;font-stretch:normal;font-size:35.4537px;font-family:FRIZON;-inkscape-font-specification:'FRIZON, Normal';font-variant-ligatures:normal;font-variant-caps:normal;font-variant-numeric:normal;font-variant-east-asian:normal;stroke-width:0.553966"
         dx="-2.2571735 0.53802913 1.3514458 -0.096044354 -0.17934304 -0.25362939 0.63407344">Re:arme</tspan></text>
  </g>
  <g
     id="layer3"
     transform="translate(-10.861225,-59.02838)">
    <circle
       style="fill:#ffffff;stroke-width:0.264583"
       id="path12"
       cx="149.12375"
       cy="222.11636"
       r="13.899087"
       clip-path="url(#clipPath14)"
       transform="translate(0.11208941,0.15692517)" />
  </g>
  <g
     id="layer4"
     transform="translate(-10.861225,-59.02838)">
    <text
       xml:space="preserve"
       style="font-size:35.4536px;font-family:FRIZON;-inkscape-font-specification:'FRIZON, Normal';fill:#ffffff;stroke-width:0.264583"
       x="38.917442"
       y="167.14772"
       id="text1"><tspan
         id="tspan1"
         style="font-style:normal;font-variant:normal;font-weight:bold;font-stretch:normal;font-size:8.46667px;font-family:Dubai;-inkscape-font-specification:'Dubai, Bold';font-variant-ligatures:normal;font-variant-caps:normal;font-variant-numeric:normal;font-variant-east-asian:normal;stroke-width:0.264583"
         x="38.917442"
         y="167.14772">Rearme: Rising Stronger Each Time</tspan></text>
  </g>
  <g
     id="layer6"
     style="display:inline"
     transform="translate(-10.861225,-59.02838)">
    <rect
       style="fill:url(#pattern2);stroke:none"
       transform="matrix(0.26458333,0,0,0.26458333,-0.04483576,-0.06725365)"
       width="589.72406"
       height="261.57382"
       x="-2.4774098"
       y="138.60088"
       id="rect2"
       clip-path="url(#clipPath13)" />
  </g>
  <g
     id="layer5"
     style="display:inline"
     transform="translate(-10.861225,-59.02838)">
    <circle
       style="display:inline;fill:#ffffff;stroke-width:0.264583"
       id="path3"
       cx="33.626816"
       cy="164.54724"
       r="2.6004741" />
    <circle
       style="display:inline;fill:#ffffff;stroke-width:0.264583"
       id="path3-8"
       cx="170.09735"
       cy="164.72801"
       r="2.6004741" />
  </g>
  <g
     id="layer7"
     style="display:inline"
     transform="translate(-10.861225,-59.02838)">
    <circle
       style="display:inline;fill:#ffffff;stroke-width:0.921479"
       id="path3-5"
       cx="72.036034"
       cy="84.133362"
       r="9.0568237" />
  </g>
</svg>
